<svg width="202" height="284" viewBox="0 0 202 284" fill="none" xmlns="http://www.w3.org/2000/svg">
<path d="M53.6 161L49.4 82V58H70.6V82L66.4 161H53.6ZM57 205C53.5333 205 50.6667 203.867 48.4 201.6C46.1333 199.333 45 196.467 45 193C45 189.533 46.1333 186.667 48.4 184.4C50.6667 182.133 53.5333 181 57 181H63C66.8667 181 69.8 182.133 71.8 184.4C73.9333 186.533 75 189.333 75 192.8C75 196.267 73.8667 199.2 71.6 201.6C69.3333 203.867 66.4667 205 63 205H57Z" fill="#1D3D76"/>
<path d="M148.4 103L152.6 182V206H131.4V182L135.6 103H148.4ZM145 59C148.467 59 151.333 60.1333 153.6 62.4C155.867 64.6667 157 67.5333 157 71C157 74.4667 155.867 77.3333 153.6 79.6C151.333 81.8667 148.467 83 145 83H139C135.133 83 132.2 81.8667 130.2 79.6C128.067 77.4667 127 74.6667 127 71.2C127 67.7333 128.133 64.8 130.4 62.4C132.667 60.1333 135.533 59 139 59H145Z" fill="#1D3D76"/>
<path d="M18.32 270V234.96H24.08L34.784 264.96C34.72 264.16 34.64 263.184 34.544 262.032C34.48 260.848 34.416 259.616 34.352 258.336C34.32 257.024 34.304 255.792 34.304 254.64V234.96H38.48V270H32.72L22.064 240C22.128 240.768 22.192 241.744 22.256 242.928C22.32 244.08 22.368 245.312 22.4 246.624C22.464 247.904 22.496 249.136 22.496 250.32V270H18.32ZM57.1813 270.384C55.0693 270.384 53.2453 269.984 51.7093 269.184C50.1733 268.384 48.9733 267.232 48.1093 265.728C47.2773 264.192 46.8613 262.384 46.8613 260.304V253.296C46.8613 251.184 47.2773 249.376 48.1093 247.872C48.9733 246.368 50.1733 245.216 51.7093 244.416C53.2453 243.616 55.0693 243.216 57.1813 243.216C59.2933 243.216 61.1173 243.616 62.6533 244.416C64.1893 245.216 65.3733 246.368 66.2053 247.872C67.0693 249.376 67.5013 251.168 67.5013 253.248V260.304C67.5013 262.384 67.0693 264.192 66.2053 265.728C65.3733 267.232 64.1893 268.384 62.6533 269.184C61.1173 269.984 59.2933 270.384 57.1813 270.384ZM57.1813 266.544C59.0693 266.544 60.5413 266.016 61.5973 264.96C62.6533 263.904 63.1813 262.352 63.1813 260.304V253.296C63.1813 251.248 62.6533 249.696 61.5973 248.64C60.5413 247.584 59.0693 247.056 57.1813 247.056C55.3253 247.056 53.8533 247.584 52.7653 248.64C51.7093 249.696 51.1813 251.248 51.1813 253.296V260.304C51.1813 262.352 51.7093 263.904 52.7653 264.96C53.8533 266.016 55.3253 266.544 57.1813 266.544ZM88.8425 270C86.5705 270 84.7945 269.392 83.5145 268.176C82.2665 266.96 81.6425 265.248 81.6425 263.04V247.536H74.2025V243.6H81.6425V236.16H85.9625V243.6H96.5225V247.536H85.9625V263.04C85.9625 265.056 86.9225 266.064 88.8425 266.064H96.0425V270H88.8425ZM104.424 270V266.064H113.784V247.536H105.624V243.6H118.104V266.064H126.984V270H104.424ZM115.464 238.848C114.408 238.848 113.576 238.576 112.968 238.032C112.36 237.488 112.056 236.752 112.056 235.824C112.056 234.864 112.36 234.112 112.968 233.568C113.576 232.992 114.408 232.704 115.464 232.704C116.52 232.704 117.352 232.992 117.96 233.568C118.568 234.112 118.872 234.864 118.872 235.824C118.872 236.752 118.568 237.488 117.96 238.032C117.352 238.576 116.52 238.848 115.464 238.848ZM143.717 270.48C141.605 270.48 139.749 270.08 138.149 269.28C136.581 268.48 135.365 267.328 134.501 265.824C133.637 264.288 133.205 262.48 133.205 260.4V253.2C133.205 251.088 133.637 249.28 134.501 247.776C135.365 246.272 136.581 245.12 138.149 244.32C139.749 243.52 141.605 243.12 143.717 243.12C146.757 243.12 149.205 243.936 151.061 245.568C152.917 247.2 153.893 249.424 153.989 252.24H149.669C149.573 250.544 148.997 249.248 147.941 248.352C146.917 247.424 145.509 246.96 143.717 246.96C141.829 246.96 140.325 247.504 139.205 248.592C138.085 249.648 137.525 251.168 137.525 253.152V260.4C137.525 262.384 138.085 263.92 139.205 265.008C140.325 266.096 141.829 266.64 143.717 266.64C145.509 266.64 146.917 266.176 147.941 265.248C148.997 264.32 149.573 263.024 149.669 261.36H153.989C153.893 264.176 152.917 266.4 151.061 268.032C149.205 269.664 146.757 270.48 143.717 270.48ZM172.306 270.48C170.226 270.48 168.402 270.064 166.834 269.232C165.298 268.4 164.098 267.232 163.234 265.728C162.402 264.192 161.986 262.416 161.986 260.4V253.2C161.986 251.152 162.402 249.376 163.234 247.872C164.098 246.368 165.298 245.2 166.834 244.368C168.402 243.536 170.226 243.12 172.306 243.12C174.386 243.12 176.194 243.536 177.73 244.368C179.298 245.2 180.498 246.368 181.33 247.872C182.194 249.376 182.626 251.152 182.626 253.2V257.856H166.21V260.4C166.21 262.48 166.738 264.08 167.794 265.2C168.85 266.288 170.354 266.832 172.306 266.832C173.97 266.832 175.314 266.544 176.338 265.968C177.362 265.36 177.986 264.464 178.21 263.28H182.53C182.242 265.488 181.154 267.248 179.266 268.56C177.41 269.84 175.09 270.48 172.306 270.48ZM178.402 254.976V253.2C178.402 251.12 177.874 249.52 176.818 248.4C175.794 247.28 174.29 246.72 172.306 246.72C170.354 246.72 168.85 247.28 167.794 248.4C166.738 249.52 166.21 251.12 166.21 253.2V254.592H178.738L178.402 254.976Z" fill="#1D3D76"/>
</svg>
